<?xml version="1.0" encoding="UTF-8" standalone="no"?><!DOCTYPE svg PUBLIC "-//W3C//DTD SVG 1.1//EN" "http://www.w3.org/Graphics/SVG/1.1/DTD/svg11.dtd"><svg width="100%" height="100%" viewBox="0 0 3786 1739" version="1.1" xmlns="http://www.w3.org/2000/svg" xmlns:xlink="http://www.w3.org/1999/xlink" xml:space="preserve" xmlns:serif="http://www.serif.com/" style="fill-rule:evenodd;clip-rule:evenodd;stroke-linejoin:round;stroke-miterlimit:2;"><path id="Logo-Flattened" serif:id="Logo Flattened" d="M1892.61,1739l1612.5,-117l-3225,0l1612.5,117Zm1774.6,-124.854l-0,-45.135l-17.541,-0l-0,-12.235l50.674,-0l0,12.235l-17.541,-0l0,45.135l-15.592,-0Zm73.575,-2.901c-1.104,-3.262 -2.225,-6.737 -3.362,-10.422c-1.137,-3.686 -2.257,-7.341 -3.362,-10.967c-1.104,-3.625 -2.111,-7.009 -3.021,-10.151c-0.909,-3.141 -1.689,-5.86 -2.339,-8.156c-0.649,-2.296 -1.104,-3.928 -1.364,-4.894l-0.39,0.09c0.195,1.088 0.358,2.523 0.487,4.305c0.13,1.783 0.228,3.656 0.293,5.619c0.065,1.964 0.097,3.762 0.097,5.393l0,32.084l-14.91,-0l0,-57.37l26.117,-0c0.91,3.202 1.868,6.57 2.875,10.105c1.007,3.535 2.014,7.039 3.021,10.513c1.007,3.475 1.9,6.768 2.68,9.879c0.779,3.112 1.332,5.816 1.656,8.112l0.195,-0c0.325,-2.296 0.861,-4.985 1.608,-8.066c0.747,-3.082 1.608,-6.375 2.583,-9.879c0.974,-3.505 1.981,-7.024 3.021,-10.559c1.039,-3.535 1.981,-6.903 2.826,-10.105l25.727,-0l-0,57.37l-14.715,-0l-0,-32.084c-0,-1.631 0.032,-3.429 0.097,-5.393c0.065,-1.963 0.179,-3.836 0.341,-5.619c0.163,-1.782 0.309,-3.217 0.439,-4.305l-0.39,-0.09c-0.26,0.966 -0.715,2.598 -1.364,4.894c-0.65,2.296 -1.446,5.03 -2.388,8.202c-0.942,3.172 -1.965,6.571 -3.07,10.196c-1.104,3.625 -2.225,7.266 -3.362,10.921c-1.137,3.655 -2.225,7.115 -3.264,10.377l-16.762,0Zm-2253.86,-226.818l-0,103.916c-14.325,5.329 -35.526,9.326 -63.603,11.991c-28.077,2.664 -57.873,3.997 -89.388,3.997c-45.267,-0 -82.941,-5.862 -113.023,-17.586c-30.083,-11.724 -52.43,-31.974 -67.041,-60.751c-14.612,-28.777 -22.204,-68.745 -22.777,-119.903c0,-52.757 7.879,-93.791 23.636,-123.101c15.758,-29.309 38.821,-49.826 69.19,-61.55c30.369,-11.724 66.754,-17.586 109.156,-17.586c25.212,0 51.856,1.599 79.933,4.797c28.077,3.197 50.997,7.46 68.76,12.789l0.859,107.114l-2.578,1.598c-17.19,-3.197 -35.526,-5.595 -55.008,-7.194c-19.482,-1.599 -38.677,-2.398 -57.586,-2.398c-38.391,0 -65.036,6.661 -79.934,19.984c-14.897,13.322 -22.346,35.704 -22.346,67.146c-0,23.98 3.151,41.832 9.454,53.556c6.303,11.724 16.903,19.451 31.801,23.181c14.898,3.731 35.24,5.596 61.025,5.596c20.055,-0 39.25,-0.799 57.586,-2.398c18.336,-1.599 37.818,-3.464 58.446,-5.596l3.438,2.398Zm1106.17,-393.281l0,298.158c0,52.225 -6.732,94.058 -20.198,125.499c-13.465,31.441 -36.815,54.223 -70.049,68.345c-33.234,14.122 -80.219,21.183 -140.957,21.183c-63.03,-0 -111.878,-7.061 -146.544,-21.183c-34.667,-14.122 -58.876,-36.904 -72.628,-68.345c-13.752,-31.441 -20.628,-73.274 -20.628,-125.499l0,-298.158l137.52,-0l-0,295.76c-0,27.178 2.865,48.494 8.595,63.949c5.73,15.454 16.044,26.245 30.942,32.373c14.898,6.129 35.812,9.193 62.743,9.193c25.212,0 44.55,-3.064 58.016,-9.193c13.465,-6.128 22.777,-16.919 27.934,-32.373c5.157,-15.455 7.735,-36.771 7.735,-63.949l-0,-295.76l137.519,-0Zm-1801.5,112.708c55.008,0 99.415,5.329 133.222,15.987c33.807,10.659 58.589,30.243 74.346,58.753c15.758,28.51 23.637,69.677 23.637,123.5l-0,195.042l-124.627,0l-4.298,-36.77l-2.578,0c-10.887,13.323 -27.791,23.981 -50.711,31.974c-22.919,7.994 -52.715,11.991 -89.387,11.991c-99.129,-0 -148.693,-43.166 -148.693,-129.496c-0,-36.77 13.036,-65.68 39.107,-86.73c26.071,-21.049 67.184,-31.574 123.338,-31.574l127.205,-0c-4.011,-22.382 -14.325,-37.436 -30.942,-45.164c-16.617,-7.727 -44.98,-11.59 -85.09,-11.59c-25.212,-0 -49.994,1.732 -74.346,5.196c-24.353,3.463 -45.697,7.327 -64.033,11.59l-2.578,-1.598l0.859,-92.725c11.46,-3.198 26.072,-6.262 43.835,-9.193c17.763,-2.931 36.528,-5.196 56.297,-6.795c19.768,-1.598 38.247,-2.398 55.437,-2.398Zm2993.63,-112.708l-0,298.158c-0,52.225 -6.733,94.058 -20.198,125.499c-13.466,31.441 -36.815,54.223 -70.049,68.345c-33.234,14.122 -80.22,21.183 -140.958,21.183c-63.029,-0 -111.877,-7.061 -146.544,-21.183c-34.666,-14.122 -58.875,-36.904 -72.627,-68.345c-13.752,-31.441 -20.628,-73.274 -20.628,-125.499l-0,-298.158l137.519,-0l0,295.76c0,27.178 2.865,48.494 8.595,63.949c5.73,15.454 16.044,26.245 30.942,32.373c14.898,6.129 35.812,9.193 62.743,9.193c25.212,0 44.551,-3.064 58.016,-9.193c13.466,-6.128 22.777,-16.919 27.934,-32.373c5.157,-15.455 7.735,-36.771 7.735,-63.949l0,-295.76l137.52,-0Zm-1054.6,375.696c25.212,7.993 52.859,14.255 82.941,18.785c30.083,4.529 60.022,6.794 89.818,6.794c40.682,0 70.908,-1.732 90.676,-5.196c19.769,-3.464 32.805,-8.926 39.108,-16.387c6.303,-7.46 9.454,-17.052 9.454,-28.776c-0,-10.125 -2.292,-18.119 -6.876,-23.981c-4.584,-5.862 -13.465,-10.525 -26.644,-13.989c-13.179,-3.463 -32.661,-6.261 -58.446,-8.393l-56.727,-4.796c-42.402,-3.73 -75.779,-11.99 -100.131,-24.78c-24.353,-12.789 -41.543,-29.976 -51.57,-51.558c-10.027,-21.583 -15.041,-47.562 -15.041,-77.937c-0,-36.237 7.879,-65.547 23.636,-87.929c15.757,-22.382 41.399,-38.769 76.925,-49.16c35.526,-10.392 82.798,-15.588 141.817,-15.588c76.781,0 140.098,9.326 189.948,27.978l-2.578,108.712l-2.578,3.197c-56.727,-18.651 -116.032,-27.977 -177.916,-27.977c-29.796,-0 -52.716,1.465 -68.76,4.396c-16.044,2.931 -27.217,7.594 -33.52,13.989c-6.303,6.395 -9.455,15.454 -9.455,27.178c0,11.724 2.149,20.517 6.446,26.379c4.298,5.862 13.036,10.258 26.215,13.189c13.179,2.931 32.374,5.729 57.586,8.393l54.149,5.596c45.839,4.796 81.079,13.322 105.718,25.579c24.639,12.257 41.685,28.644 51.14,49.16c9.454,20.517 14.181,45.43 14.181,74.74c0,35.704 -8.165,65.414 -24.495,89.128c-16.331,23.714 -42.832,41.433 -79.504,53.157c-36.671,11.724 -85.663,17.586 -146.974,17.586c-40.109,-0 -76.208,-1.999 -108.296,-5.996c-32.088,-3.996 -63.316,-9.459 -93.685,-16.386l-0,-112.709l3.438,-2.398Zm-2593.1,130.294l-137.519,0l0,-505.99l137.519,-0l0,193.443l206.28,0l-0,-193.443l137.519,-0l-0,505.99l-137.519,0l-0,-208.631l-206.28,0l0,208.631Zm1612.42,0l-137.52,0l0,-537.965l137.52,0l-0,313.347l1.719,-0l108.296,-164.667l151.271,0l0,3.198l-127.205,183.851l-0,3.197l147.833,199.039l-158.147,0l-121.189,-179.854l-2.578,-0.8l-0,180.654Zm-963.496,-87.129c35.526,-0 62.17,-4.13 79.933,-12.39c17.763,-8.26 26.931,-21.449 27.504,-39.568l0,-19.984l-97.123,-0c-25.212,-0 -42.831,3.331 -52.859,9.992c-10.027,6.661 -15.041,15.587 -15.041,26.778c-0,13.323 5.157,22.515 15.471,27.578c10.314,5.063 24.352,7.594 42.115,7.594Zm-506.328,-552.507l563,-76.5l239,-293l78,65l301,-305l218,133l209.5,-381l337.5,351l88,-89l285,224l101,-84l305,297l500,158.5l-1183.69,-3l637.693,-87.5l-236,-219l-109,75l-269,-190l28,231l-448,-488l-42,224l-58,76l-1,113l-362,-166l-36,138l-147,1l-156,219l340.693,73.5l-1183.69,3Zm1605.51,-83.104c0,19.388 -2.377,34.95 -7.132,46.685c-4.754,11.735 -12.435,20.238 -23.041,25.511c-10.606,5.272 -24.779,7.908 -42.517,7.908c-17.555,0 -31.636,-2.636 -42.242,-7.908c-10.607,-5.273 -18.287,-13.776 -23.042,-25.511c-4.754,-11.735 -7.132,-27.297 -7.132,-46.685c0,-19.558 2.378,-35.205 7.132,-46.94c4.755,-11.735 12.435,-20.238 23.042,-25.511c10.606,-5.272 24.687,-7.908 42.242,-7.908c17.738,0 31.911,2.636 42.517,7.908c10.606,5.273 18.287,13.776 23.041,25.511c4.755,11.735 7.132,27.382 7.132,46.94Zm-300.909,-33.929l-0,-33.419c6.4,-3.742 14.812,-6.803 25.236,-9.184c10.423,-2.381 21.761,-3.572 34.013,-3.572c19.567,0 35.248,3.572 47.043,10.715c11.795,7.143 17.692,19.218 17.692,36.225c0,13.436 -3.337,24.193 -10.012,32.271c-6.674,8.079 -18.424,15.094 -35.247,21.047c-16.276,5.782 -27.476,10.672 -33.602,14.668c-6.126,3.997 -9.19,7.951 -9.19,11.863l89.423,-0l-0,32.399l-130.019,-0l-0,-28.573c-0,-8.673 1.6,-16.071 4.8,-22.194c3.2,-6.122 8.732,-11.735 16.595,-16.837c7.864,-5.102 18.744,-10.374 32.642,-15.817c10.424,-4.081 18.607,-8.036 24.55,-11.862c5.944,-3.827 8.824,-8.461 8.641,-13.904c-0.183,-6.462 -2.789,-11.012 -7.818,-13.648c-5.029,-2.636 -12.115,-3.954 -21.258,-3.954c-8.778,-0 -17.738,1.403 -26.882,4.209c-9.143,2.806 -17.189,5.995 -24.138,9.567l-2.469,-0Zm495.115,-0l0,-33.419c6.4,-3.742 14.812,-6.803 25.236,-9.184c10.423,-2.381 21.761,-3.572 34.013,-3.572c19.567,0 35.248,3.572 47.043,10.715c11.795,7.143 17.693,19.218 17.693,36.225c-0,13.436 -3.338,24.193 -10.012,32.271c-6.675,8.079 -18.424,15.094 -35.248,21.047c-16.276,5.782 -27.476,10.672 -33.602,14.668c-6.126,3.997 -9.189,7.951 -9.189,11.863l89.422,-0l0,32.399l-130.019,-0l-0,-28.573c-0,-8.673 1.6,-16.071 4.8,-22.194c3.2,-6.122 8.732,-11.735 16.595,-16.837c7.864,-5.102 18.744,-10.374 32.642,-15.817c10.424,-4.081 18.607,-8.036 24.55,-11.862c5.944,-3.827 8.824,-8.461 8.641,-13.904c-0.183,-6.462 -2.789,-11.012 -7.818,-13.648c-5.029,-2.636 -12.115,-3.954 -21.258,-3.954c-8.778,-0 -17.738,1.403 -26.882,4.209c-9.143,2.806 -17.189,5.995 -24.138,9.567l-2.469,-0Zm-157.724,-0l0,-33.419c6.401,-3.742 14.813,-6.803 25.236,-9.184c10.424,-2.381 21.761,-3.572 34.014,-3.572c19.566,0 35.247,3.572 47.042,10.715c11.795,7.143 17.693,19.218 17.693,36.225c-0,13.436 -3.337,24.193 -10.012,32.271c-6.675,8.079 -18.424,15.094 -35.248,21.047c-16.275,5.782 -27.476,10.672 -33.602,14.668c-6.126,3.997 -9.189,7.951 -9.189,11.863l89.422,-0l0,32.399l-130.019,-0l0,-28.573c0,-8.673 1.6,-16.071 4.801,-22.194c3.2,-6.122 8.731,-11.735 16.595,-16.837c7.863,-5.102 18.744,-10.374 32.642,-15.817c10.423,-4.081 18.607,-8.036 24.55,-11.862c5.943,-3.827 8.823,-8.461 8.64,-13.904c-0.183,-6.462 -2.788,-11.012 -7.817,-13.648c-5.029,-2.636 -12.115,-3.954 -21.259,-3.954c-8.777,-0 -17.738,1.403 -26.881,4.209c-9.144,2.806 -17.19,5.995 -24.139,9.567l-2.469,-0Zm-109.172,80.104c12.435,-0 20.619,-3.784 24.55,-11.353c3.932,-7.568 5.898,-19.175 5.898,-34.822c-0,-15.817 -1.966,-27.466 -5.898,-34.95c-3.931,-7.483 -12.115,-11.224 -24.55,-11.224c-12.252,-0 -20.344,3.741 -24.276,11.224c-3.931,7.484 -5.897,19.133 -5.897,34.95c-0,15.647 1.966,27.254 5.897,34.822c3.932,7.569 12.024,11.353 24.276,11.353Z" style="fill:#0f2439;fill-rule:nonzero;"/></svg>