<?xml version="1.0" encoding="UTF-8" standalone="no"?><!DOCTYPE svg PUBLIC "-//W3C//DTD SVG 1.1//EN" "http://www.w3.org/Graphics/SVG/1.1/DTD/svg11.dtd"><svg width="100%" height="100%" viewBox="0 0 3786 1769" version="1.1" xmlns="http://www.w3.org/2000/svg" xmlns:xlink="http://www.w3.org/1999/xlink" xml:space="preserve" xmlns:serif="http://www.serif.com/" style="fill-rule:evenodd;clip-rule:evenodd;stroke-linejoin:round;stroke-miterlimit:2;"><path id="Bottom" d="M257.611,1652l3225,0l-1563,117l-1662,-117Z" style="fill:#0f2439;"/><g id="HackUSU-vector" serif:id="HackUSU vector"><path d="M137.519,1530.14l-137.519,0l0,-505.99l137.519,-0l0,193.443l206.28,0l-0,-193.443l137.519,-0l-0,505.99l-137.519,0l-0,-208.631l-206.28,0l0,208.631Z" style="fill:#0f2439;fill-rule:nonzero;"/><path d="M791.596,1136.85c55.008,0 99.415,5.329 133.222,15.987c33.807,10.659 58.589,30.243 74.346,58.753c15.758,28.51 23.637,69.677 23.637,123.5l-0,195.042l-124.627,0l-4.298,-36.77l-2.578,0c-10.887,13.323 -27.791,23.981 -50.711,31.974c-22.919,7.994 -52.715,11.991 -89.387,11.991c-99.129,-0 -148.693,-43.166 -148.693,-129.496c-0,-36.77 13.036,-65.68 39.107,-86.73c26.071,-21.049 67.184,-31.574 123.338,-31.574l127.205,-0c-4.011,-22.382 -14.325,-37.436 -30.942,-45.164c-16.617,-7.727 -44.98,-11.59 -85.09,-11.59c-25.212,-0 -49.994,1.732 -74.346,5.196c-24.353,3.463 -45.697,7.327 -64.033,11.59l-2.578,-1.598l0.859,-92.725c11.46,-3.198 26.072,-6.262 43.835,-9.193c17.763,-2.931 36.528,-5.196 56.297,-6.795c19.768,-1.598 38.247,-2.398 55.437,-2.398Zm-5.157,306.153c35.526,-0 62.17,-4.13 79.933,-12.39c17.763,-8.26 26.931,-21.449 27.504,-39.568l0,-19.984l-97.123,-0c-25.212,-0 -42.831,3.331 -52.859,9.992c-10.027,6.661 -15.041,15.587 -15.041,26.778c-0,13.323 5.157,22.515 15.471,27.578c10.314,5.063 24.352,7.594 42.115,7.594Z" style="fill:#0f2439;fill-rule:nonzero;"/><path d="M1486.93,1417.43l-0,103.916c-14.325,5.329 -35.526,9.326 -63.603,11.991c-28.077,2.664 -57.873,3.997 -89.388,3.997c-45.267,-0 -82.941,-5.862 -113.023,-17.586c-30.083,-11.724 -52.43,-31.974 -67.041,-60.751c-14.612,-28.777 -22.204,-68.745 -22.777,-119.903c0,-52.757 7.879,-93.791 23.636,-123.101c15.758,-29.309 38.821,-49.826 69.19,-61.55c30.369,-11.724 66.754,-17.586 109.156,-17.586c25.212,0 51.856,1.599 79.933,4.797c28.077,3.197 50.997,7.46 68.76,12.789l0.859,107.114l-2.578,1.598c-17.19,-3.197 -35.526,-5.595 -55.008,-7.194c-19.482,-1.599 -38.677,-2.398 -57.586,-2.398c-38.391,0 -65.036,6.661 -79.934,19.984c-14.897,13.322 -22.346,35.704 -22.346,67.146c-0,23.98 3.151,41.832 9.454,53.556c6.303,11.724 16.903,19.451 31.801,23.181c14.898,3.731 35.24,5.596 61.025,5.596c20.055,-0 39.25,-0.799 57.586,-2.398c18.336,-1.599 37.818,-3.464 58.446,-5.596l3.438,2.398Z" style="fill:#0f2439;fill-rule:nonzero;"/><path d="M1749.93,1530.14l-137.52,0l0,-537.965l137.52,0l-0,313.347l1.719,-0l108.296,-164.667l151.271,0l0,3.198l-127.205,183.851l-0,3.197l147.833,199.039l-158.147,0l-121.189,-179.854l-2.578,-0.8l-0,180.654Z" style="fill:#0f2439;fill-rule:nonzero;"/><path d="M2593.1,1024.15l0,298.158c0,52.225 -6.732,94.058 -20.198,125.499c-13.465,31.441 -36.815,54.223 -70.049,68.345c-33.234,14.122 -80.219,21.183 -140.957,21.183c-63.03,-0 -111.878,-7.061 -146.544,-21.183c-34.667,-14.122 -58.876,-36.904 -72.628,-68.345c-13.752,-31.441 -20.628,-73.274 -20.628,-125.499l0,-298.158l137.52,-0l-0,295.76c-0,27.178 2.865,48.494 8.595,63.949c5.73,15.454 16.044,26.245 30.942,32.373c14.898,6.129 35.812,9.193 62.743,9.193c25.212,0 44.55,-3.064 58.016,-9.193c13.465,-6.128 22.777,-16.919 27.934,-32.373c5.157,-15.455 7.735,-36.771 7.735,-63.949l-0,-295.76l137.519,-0Z" style="fill:#0f2439;fill-rule:nonzero;"/><path d="M2730.62,1399.84c25.212,7.993 52.859,14.255 82.941,18.785c30.083,4.529 60.022,6.794 89.818,6.794c40.682,0 70.908,-1.732 90.676,-5.196c19.769,-3.464 32.805,-8.926 39.108,-16.387c6.303,-7.46 9.454,-17.052 9.454,-28.776c-0,-10.125 -2.292,-18.119 -6.876,-23.981c-4.584,-5.862 -13.465,-10.525 -26.644,-13.989c-13.179,-3.463 -32.661,-6.261 -58.446,-8.393l-56.727,-4.796c-42.402,-3.73 -75.779,-11.99 -100.131,-24.78c-24.353,-12.789 -41.543,-29.976 -51.57,-51.558c-10.027,-21.583 -15.041,-47.562 -15.041,-77.937c-0,-36.237 7.879,-65.547 23.636,-87.929c15.757,-22.382 41.399,-38.769 76.925,-49.16c35.526,-10.392 82.798,-15.588 141.817,-15.588c76.781,0 140.098,9.326 189.948,27.978l-2.578,108.712l-2.578,3.197c-56.727,-18.651 -116.032,-27.977 -177.916,-27.977c-29.796,-0 -52.716,1.465 -68.76,4.396c-16.044,2.931 -27.217,7.594 -33.52,13.989c-6.303,6.395 -9.455,15.454 -9.455,27.178c0,11.724 2.149,20.517 6.446,26.379c4.298,5.862 13.036,10.258 26.215,13.189c13.179,2.931 32.374,5.729 57.586,8.393l54.149,5.596c45.839,4.796 81.079,13.322 105.718,25.579c24.639,12.257 41.685,28.644 51.14,49.16c9.454,20.517 14.181,45.43 14.181,74.74c0,35.704 -8.165,65.414 -24.495,89.128c-16.331,23.714 -42.832,41.433 -79.504,53.157c-36.671,11.724 -85.663,17.586 -146.974,17.586c-40.109,-0 -76.208,-1.999 -108.296,-5.996c-32.088,-3.996 -63.316,-9.459 -93.685,-16.386l-0,-112.709l3.438,-2.398Z" style="fill:#0f2439;fill-rule:nonzero;"/><path d="M3785.22,1024.15l-0,298.158c-0,52.225 -6.733,94.058 -20.198,125.499c-13.466,31.441 -36.815,54.223 -70.049,68.345c-33.234,14.122 -80.22,21.183 -140.958,21.183c-63.029,-0 -111.877,-7.061 -146.544,-21.183c-34.666,-14.122 -58.875,-36.904 -72.627,-68.345c-13.752,-31.441 -20.628,-73.274 -20.628,-125.499l-0,-298.158l137.519,-0l0,295.76c0,27.178 2.865,48.494 8.595,63.949c5.73,15.454 16.044,26.245 30.942,32.373c14.898,6.129 35.812,9.193 62.743,9.193c25.212,0 44.551,-3.064 58.016,-9.193c13.466,-6.128 22.777,-16.919 27.934,-32.373c5.157,-15.455 7.735,-36.771 7.735,-63.949l0,-295.76l137.52,-0Z" style="fill:#0f2439;fill-rule:nonzero;"/></g><path id="Top" d="M257.611,877l563,-66l239,-293l78,65l301,-305l218,133l263,-411l284,381l88,-89l285,224l101,-84l305,297l500,148l-1403,0l857,-80l-236,-219l-109,75l-269,-190l28,231l-413,-481l-77,217l-58,76l-1,213l-362,-266l-36,138l-147,1l-156,219l372,66l-1215,0Z" style="fill:#0f2439;"/></svg>