<svg width="100%" height="100%" viewBox="0 0 3964 2023" version="1.1" xmlns="http://www.w3.org/2000/svg" xmlns:xlink="http://www.w3.org/1999/xlink" xml:space="preserve" xmlns:serif="http://www.serif.com/" style="fill-rule:evenodd;clip-rule:evenodd;stroke-linejoin:round;stroke-miterlimit:2;">
    <g transform="matrix(1,0,0,1,0,-493)">
        <g transform="matrix(2.64267,0,0,1.34867,0,493)">
            <g transform="matrix(1.15035,0,0,1.12457,-111.251,-82.3035)">
                <g transform="matrix(0.328947,0,0,0.659341,157.895,87.033)">
                    <path d="M165,1755L3390,1755L1827,1872L165,1755Z" style="fill:rgb(15,36,57);"/>
                </g>
                <g transform="matrix(5.65458,0,0,10.5409,-1358.62,-11693.3)">
                    <text x="259.805px" y="1220.19px" style="font-family:'BakbakOne-Regular', 'Bakbak One';font-size:50px;fill:rgb(15,36,57);">H<tspan x="296.605px 327.355px 353.605px 383.255px 419.455px 452.605px " y="1220.19px 1220.19px 1220.19px 1220.19px 1220.19px 1220.19px ">ackUSU</tspan></text>
                </g>
                <g transform="matrix(0.328947,0,0,0.659341,157.895,125.934)">
                    <path d="M165,921L728,855L967,562L1045,627L1346,322L1564,455L1827,44L2111,425L2199,336L2484,560L2585,476L2890,773L3390,921L1987,921L2844,841L2608,622L2499,697L2230,507L2258,738L1845,257L1768,474L1710,550L1709,763L1347,497L1311,635L1164,636L1008,855L1380,921L165,921Z" style="fill:rgb(15,36,57);"/>
                </g>
            </g>
        </g>
    </g>
</svg>
